<?xml version="1.0" encoding="utf-8"?>
<!-- Generator: Adobe Illustrator 16.0.0, SVG Export Plug-In . SVG Version: 6.00 Build 0)  -->
<!DOCTYPE svg PUBLIC "-//W3C//DTD SVG 1.1//EN" "http://www.w3.org/Graphics/SVG/1.1/DTD/svg11.dtd">
<svg version="1.1" id="Layer_1" xmlns="http://www.w3.org/2000/svg" xmlns:xlink="http://www.w3.org/1999/xlink" x="0px" y="0px"
	 width="44.25px" height="29.965px" viewBox="0 0 44.25 29.965" enable-background="new 0 0 44.25 29.965" xml:space="preserve">
<rect width="44.25" height="29.965"/>
<path fill="#FFFFFF" d="M36.27,11.923h-7.037l3.519,6.118L36.27,11.923z"/>
<path fill="#FFFFFF" d="M20.975,13.742h-11.9c-0.548,0-0.992,0.555-0.992,1.239c0,0.688,0.444,1.242,0.992,1.242h11.9
	c0.549,0,0.993-0.555,0.993-1.242C21.968,14.297,21.524,13.742,20.975,13.742z M9.075,11.261h11.9c0.549,0,0.993-0.556,0.993-1.241
	s-0.443-1.24-0.993-1.24h-11.9c-0.548,0-0.992,0.555-0.992,1.24S8.527,11.261,9.075,11.261z M20.975,18.704h-11.9
	c-0.548,0-0.992,0.555-0.992,1.241c0,0.685,0.444,1.24,0.992,1.24h11.9c0.549,0,0.993-0.556,0.993-1.24
	C21.968,19.259,21.524,18.704,20.975,18.704z"/>
<rect x="0.5" y="0.5" fill="none" stroke="#3E3D40" stroke-miterlimit="10" width="43.25" height="28.965"/>
</svg>
