<?xml version="1.0" encoding="utf-8"?>
<!-- Generator: Adobe Illustrator 16.0.0, SVG Export Plug-In . SVG Version: 6.00 Build 0)  -->
<!DOCTYPE svg PUBLIC "-//W3C//DTD SVG 1.1//EN" "http://www.w3.org/Graphics/SVG/1.1/DTD/svg11.dtd">
<svg version="1.1" id="Layer_1" xmlns="http://www.w3.org/2000/svg" xmlns:xlink="http://www.w3.org/1999/xlink" x="0px" y="0px"
	 width="21.75px" height="21px" viewBox="0 0 21.75 21" enable-background="new 0 0 21.75 21" xml:space="preserve">
<path fill="#FFFFFF" d="M19.432,1.943c-0.391-0.393-1.022-0.393-1.418,0L2.318,17.637c-0.393,0.396-0.393,1.029,0,1.42
	c0.195,0.197,0.453,0.295,0.711,0.295c0.256,0,0.514-0.098,0.709-0.295L19.432,3.363C19.824,2.971,19.824,2.334,19.432,1.943z
	 M15.095,9.689c1.395,1.894,1.826,3.536,1.563,3.795c-0.26,0.26-1.901-0.172-3.793-1.565l-5.55,5.549
	c4.205,1.847,9.669-2.024,10.65-3.006c0.93-0.929,0.098-3.326-1.863-5.779L15.095,9.689z M9.535,8.43
	C8.433,6.768,8.1,5.396,8.337,5.158c0.233-0.235,1.606,0.098,3.271,1.201l1.027-1.027C10.361,3.65,8.221,2.988,7.356,3.857
	c-0.933,0.93-4.468,5.9-3.245,9.999L9.535,8.43L9.535,8.43z"/>
</svg>
