<?xml version="1.0" encoding="utf-8"?>
<!-- Generator: Adobe Illustrator 18.0.0, SVG Export Plug-In . SVG Version: 6.00 Build 0)  -->
<!DOCTYPE svg PUBLIC "-//W3C//DTD SVG 1.1//EN" "http://www.w3.org/Graphics/SVG/1.1/DTD/svg11.dtd">
<svg version="1.1" id="Layer_1" xmlns="http://www.w3.org/2000/svg" xmlns:xlink="http://www.w3.org/1999/xlink" x="0px" y="0px"
	 viewBox="361.9 271.9 68.2 68.2" width="15" height="15" enable-background="new 361.9 271.9 68.2 68.2" xml:space="preserve">
<path fill="#FFFFFF" d="M428.1,297.6h-23.3v-23.7c0-1.2-0.8-2-2-2h-13.2c-1.2,0-2,1.2-2,2v23.3h-23.7c-1.2,0-2,0.8-2,2V312
	c0,1.2,0.8,2,2,2h23.3v24.1c0,1.2,0.8,2,2,2H402c1.2,0,2-0.8,2-2v-23.3h24.1c1.2,0,2-0.8,2-2v-13.2
	C430.1,298.4,428.9,297.6,428.1,297.6z"/>
</svg>
