<?xml version="1.0" encoding="utf-8"?>
<!-- Generator: Adobe Illustrator 18.0.0, SVG Export Plug-In . SVG Version: 6.00 Build 0)  -->
<!DOCTYPE svg PUBLIC "-//W3C//DTD SVG 1.1//EN" "http://www.w3.org/Graphics/SVG/1.1/DTD/svg11.dtd">
<svg version="1.1" id="Layer_1" xmlns="http://www.w3.org/2000/svg" xmlns:xlink="http://www.w3.org/1999/xlink" x="0px" y="0px"
	 viewBox="310 310 19.4 20" enable-background="new 310 310 19.4 20" xml:space="preserve">
<path display="none" d="M326.8,319.3l-12.3-7.6c-0.9-0.6-1.6-0.2-1.6,1v14.8c0,1.1,0.7,1.5,1.6,1l12.3-7.6c0,0,0.4-0.3,0.4-0.7
	C327.2,319.6,326.8,319.3,326.8,319.3L326.8,319.3z"/>
<path fill="#FFFFFF" d="M314.6,326.7l3-2.8l-1.9-1.9l-2.8,3l-1.9-2v5.7h5.7L314.6,326.7z M321.6,316.1l1.9,1.9l2.8-3l1.9,2v-5.7
	h-5.7l2,1.9L321.6,316.1z"/>
</svg>
