<?xml version="1.0" encoding="utf-8"?>
<!-- Generator: Adobe Illustrator 16.0.0, SVG Export Plug-In . SVG Version: 6.00 Build 0)  -->
<!DOCTYPE svg PUBLIC "-//W3C//DTD SVG 1.1//EN" "http://www.w3.org/Graphics/SVG/1.1/DTD/svg11.dtd">
<svg version="1.1" id="Layer_1" xmlns="http://www.w3.org/2000/svg" xmlns:xlink="http://www.w3.org/1999/xlink" x="0px" y="0px"
	 width="21.75px" height="21px" viewBox="308.75 309.5 21.75 21" enable-background="new 308.75 309.5 21.75 21"
	 xml:space="preserve">
<path fill="#FFFFFF" d="M314.398,314.559c-1.118,1.119-6.028,8.113-1.794,12.354c4.234,4.242,11.222-0.668,12.354-1.786
	c1.119-1.119-0.341-4.401-3.254-7.314C318.793,314.893,315.518,313.44,314.398,314.559L314.398,314.559z M323.652,324.146
	c-0.334,0.326-2.891-0.443-5.354-2.928c-2.469-2.462-3.254-5.033-2.927-5.36c0.319-0.334,2.891,0.458,5.353,2.934
	C323.194,321.263,323.979,323.812,323.652,324.146L323.652,324.146z M323.805,316.28c0.254,0,0.516-0.102,0.712-0.298l1.902-1.903
	c0.386-0.392,0.386-1.031,0-1.409c-0.392-0.399-1.031-0.399-1.423,0l-1.896,1.888c-0.392,0.399-0.392,1.031,0,1.424
	C323.296,316.179,323.551,316.28,323.805,316.28z M320.202,313.796c0.152,0.095,0.319,0.131,0.486,0.131
	c0.356,0,0.697-0.182,0.879-0.508l1.075-1.932c0.269-0.486,0.102-1.097-0.378-1.358c-0.486-0.269-1.097-0.102-1.358,0.378
	l-1.082,1.932C319.556,312.925,319.723,313.535,320.202,313.796z M328.954,316.811c-0.276-0.479-0.886-0.646-1.365-0.378
	l-1.933,1.075c-0.479,0.269-0.646,0.879-0.377,1.365c0.174,0.327,0.516,0.509,0.871,0.509c0.167,0,0.334-0.044,0.486-0.131
	l1.925-1.083C329.056,317.907,329.216,317.297,328.954,316.811L328.954,316.811z"/>
<path display="none" d="M326.585,312.592c-0.389-0.393-1.023-0.393-1.418,0l-15.694,15.693c-0.393,0.395-0.393,1.029,0,1.42
	c0.195,0.197,0.453,0.295,0.71,0.295c0.256,0,0.514-0.098,0.71-0.295l15.692-15.693
	C326.979,313.619,326.979,312.982,326.585,312.592z M322.249,320.338c1.393,1.893,1.826,3.535,1.564,3.795
	c-0.26,0.26-1.902-0.172-3.794-1.566l-5.549,5.549c4.204,1.846,9.669-2.025,10.65-3.006c0.93-0.928,0.098-3.326-1.863-5.779
	L322.249,320.338z M316.69,319.078c-1.103-1.662-1.436-3.034-1.199-3.271c0.234-0.236,1.607,0.097,3.271,1.201l1.027-1.027
	c-2.273-1.682-4.414-2.344-5.278-1.475c-0.933,0.93-4.468,5.9-3.246,9.998L316.69,319.078L316.69,319.078z"/>
</svg>
