<?xml version="1.0" encoding="utf-8"?>
<!-- Generator: Adobe Illustrator 16.0.0, SVG Export Plug-In . SVG Version: 6.00 Build 0)  -->
<!DOCTYPE svg PUBLIC "-//W3C//DTD SVG 1.1//EN" "http://www.w3.org/Graphics/SVG/1.1/DTD/svg11.dtd">
<svg version="1.1" id="Layer_1" xmlns="http://www.w3.org/2000/svg" xmlns:xlink="http://www.w3.org/1999/xlink" x="0px" y="0px"
	 width="20px" height="20px" viewBox="310 310 20 20" enable-background="new 310 310 20 20" xml:space="preserve">
<path display="none" d="M326.752,319.263l-12.311-7.628c-0.897-0.589-1.632-0.154-1.632,0.963v14.807
	c0,1.118,0.735,1.55,1.632,0.963l12.311-7.628c0,0,0.439-0.308,0.439-0.739C327.189,319.569,326.752,319.263,326.752,319.263
	L326.752,319.263z"/>
<path d="M330.571,313.443c-0.78,0.346-1.614,0.578-2.493,0.685c0.896-0.538,1.586-1.388,1.906-2.4
	c-0.836,0.497-1.766,0.858-2.751,1.053c-0.792-0.844-1.92-1.371-3.166-1.371c-2.396,0-4.337,1.942-4.337,4.337
	c0,0.34,0.037,0.671,0.112,0.988c-3.604-0.179-6.801-1.906-8.939-4.531c-0.375,0.641-0.589,1.386-0.589,2.182
	c0,1.505,0.765,2.832,1.929,3.609c-0.711-0.023-1.379-0.217-1.964-0.543c0,0.021,0,0.036,0,0.055c0,2.101,1.496,3.854,3.479,4.254
	c-0.364,0.098-0.747,0.15-1.144,0.15c-0.277,0-0.548-0.024-0.814-0.075c0.55,1.724,2.154,2.975,4.049,3.012
	c-1.485,1.164-3.354,1.857-5.385,1.857c-0.35,0-0.696-0.023-1.035-0.062c1.918,1.229,4.198,1.947,6.649,1.947
	c7.976,0,12.339-6.608,12.339-12.34c0-0.187-0.004-0.375-0.013-0.561C329.254,315.077,329.987,314.313,330.571,313.443
	L330.571,313.443z"/>
</svg>
