<?xml version="1.0" encoding="utf-8"?>
<!-- Generator: Adobe Illustrator 16.0.0, SVG Export Plug-In . SVG Version: 6.00 Build 0)  -->
<!DOCTYPE svg PUBLIC "-//W3C//DTD SVG 1.1//EN" "http://www.w3.org/Graphics/SVG/1.1/DTD/svg11.dtd">
<svg version="1.1" xmlns="http://www.w3.org/2000/svg" xmlns:xlink="http://www.w3.org/1999/xlink" x="0px" y="0px" width="1300px"
	 height="500px" viewBox="0 0 1300 500" enable-background="new 0 0 1300 500" xml:space="preserve">
<g id="Layer_14">
</g>
<g id="Layer_10" display="none">
	<g id="XMLID_11_" display="inline">
		<g>
			<path fill="#A1C4D8" d="M836.626,175.421c0,0-3.17,6.162-5.436,15.199C622.829,293.724,400.879,453.925,400.879,453.925
				l2.718-18.484C496,342.194,806.278,191.441,836.626,175.421z"/>
			<path fill="#F7F4C1" d="M747.394,59.583c0,0,75.191,38.202,89.232,115.838C806.278,191.441,496,342.194,403.597,435.44
				c-13.136-12.323-38.049-39.023-38.049-39.023S603.352,103.947,747.394,59.583z"/>
			<path fill="#EAEFF7" d="M403.597,435.44l-2.718,18.484l-35.331-38.202v-19.306C365.548,396.417,390.461,423.117,403.597,435.44z"
				/>
		</g>
		<g>
		</g>
	</g>
</g>
<g id="Layer_9" display="none">
	<g id="XMLID_20_" display="inline">
		<g>
			<polygon fill="#EAEFF7" points="964.171,126.302 1528.614,420.539 55.53,423.854 227.629,143.263 			"/>
			<polygon fill="#A1C4D8" points="1528.614,420.539 1490.797,431.968 -23.604,435.656 55.53,423.854 			"/>
			<polygon fill="#A1C4D8" points="227.629,143.263 55.53,423.854 -23.604,435.656 138.107,161.702 			"/>
		</g>
		<g>
		</g>
	</g>
</g>
<g id="Layer_12" display="none">
	<g id="XMLID_9_" display="inline">
		<g>
			<path fill="#A1C4D8" d="M109.443,47.558c0,0,7.263-0.309,17.878,3.682c1.042,18.878,238.227,319.63,238.227,319.63l-18.034-4.306
				C310.477,347.572,125.909,75.418,109.443,47.558z"/>
			<path fill="#F7F4C1" d="M109.443,47.558c16.465,27.86,201.034,300.015,238.071,319.007
				c-23.497,7.506-72.713,83.038-72.713,83.038S40.504,290.603,6.064,167.98C6.064,167.98,16.55,100.18,109.443,47.558z"/>
			<path fill="#EAEFF7" d="M347.514,366.564l18.034,4.306l-73.671,80.283l-17.075-1.551
				C274.801,449.603,324.017,374.07,347.514,366.564z"/>
		</g>
		<g>
		</g>
	</g>
</g>
<g id="Layer_11" display="none">
	<g id="XMLID_17_" display="inline">
		<g>
			<path fill="#F7F4C1" d="M1293.723,233.451c0,0-30.493,81.108-40.521,103.325c-152.554-93.556-359.514-97.321-359.514-97.321
				l2.318-82.011C1082.107,127.794,1293.723,233.451,1293.723,233.451z"/>
			<path fill="#A1C4D8" d="M1253.202,336.776c0,0-5.828,2.781-8.962,6.949c-223.773-102.987-360.718-90.031-360.718-90.031
				l10.166-14.239C893.688,239.456,1100.648,243.221,1253.202,336.776z"/>
			<polygon fill="#EAEFF7" points="896.007,157.444 893.688,239.456 883.522,253.694 884.866,168.712 			"/>
		</g>
		<g>
		</g>
	</g>
</g>
<g id="Layer_2">
	<g id="XMLID_1_">
		<g>
			<path fill="#CCDBEE" d="M332.2,299.899c2.36,7.184,8.472,45.888-9.275,67.642c-17.748,21.762-137.177,48.516-137.177,48.516
				l5.409-21.462c0,0,90.083-29.11,110.524-36.617C319.065,351.59,339.18,326.172,332.2,299.899z"/>
			<path fill="#6FA9D1" d="M272.253,261.684c0.826-0.143,33.445-5.78,53.625,24.411c3.048,4.564,5.104,9.196,6.321,13.805
				c6.98,26.273-13.135,51.69-30.52,58.078c-20.441,7.507-110.524,36.617-110.524,36.617l-56.869-172.448
				c0,0,86.723-79.54,145.07-21.904C308.073,235.996,273.035,261.128,272.253,261.684z M264.788,325.82
				c6.894-5.57,10.224-12.025,4.62-18.849c-16.668-20.283-55.392,9.413-55.392,9.413l5.098,14.698l4.583,13.234
				C223.696,344.316,251.182,336.802,264.788,325.82z M229.366,233.789c5.206-5.082,7.704-10.817,4.156-16.792
				c-11.708-19.697-55.269,9.12-55.269,9.12l5.525,11.823l7.378,15.816C191.156,253.757,217.404,245.477,229.366,233.789z"/>
			<path fill="#CCDBEE" d="M269.407,306.971c5.604,6.824,2.274,13.279-4.62,18.849l-0.007-0.008
				c-3.816-20.56-45.667,5.27-45.667,5.27l-5.098-14.698C214.015,316.384,252.739,286.688,269.407,306.971z"/>
			<path fill="#CCDBEE" d="M233.522,216.997c3.548,5.975,1.05,11.71-4.156,16.792c-8.581-11.733-45.588,4.151-45.588,4.151
				l-5.525-11.823C178.253,226.117,221.813,197.3,233.522,216.997z"/>
			<polygon fill="#EAEFF7" points="134.287,222.146 191.156,394.595 185.747,416.057 130.116,253.164 			"/>
		</g>
		<g>
		</g>
	</g>
</g>
<g id="Layer_3">
	<g id="XMLID_14_">
		<g>
			<polygon fill="#CCDBEE" points="443,318.573 443,334.697 364.142,345.328 368.036,328.323 			"/>
			<path fill="#6FA9D1" d="M439.106,275.672L443,318.573l-74.964,9.75L330.55,203.067v-0.007
				c50.263-22.321,97.974-29.406,97.974-29.406l2.231,33.84L378.61,226.27l3.539,11.917l3.511,11.825l30.806-8.861l4.079,24.538
				l-27.644,8.421l4.456,16.295l21.916-7.732L439.106,275.672z"/>
			<polygon fill="#CCDBEE" points="430.756,207.495 430.756,221.842 382.149,238.187 378.61,226.27 			"/>
			<polygon fill="#CCDBEE" points="420.544,265.688 419.272,282.672 397.356,290.404 392.901,274.109 			"/>
			<polygon fill="#CCDBEE" points="330.55,203.067 368.036,328.323 364.142,345.328 326.144,226.198 			"/>
		</g>
		<g>
		</g>
	</g>
</g>
<g id="Layer_4">
	<g id="XMLID_3_">
		<g>
			<path fill="#CCDBEE" d="M475.903,328.094l-1.954,15.101c0,0-36.363-103.88-1.961-143.761h0.007
				C446.092,241.788,475.633,327.291,475.903,328.094z"/>
			<path fill="#CCDBEE" d="M582.632,311.892l-3.155,17.894l-39.084-1.521v-17.432C540.393,310.833,576.791,316.305,582.632,311.892z
				"/>
			<path fill="#6FA9D1" d="M513.005,297.217c1.158,12.01,2.871,27.679,2.871,27.679s-39.618,4.264-39.973,3.198
				c-0.27-0.803-29.811-86.306-3.908-128.66c8.506-13.928,23.017-23.195,46.546-23.238c95.047-0.178,66.267,128.39,64.845,134.636
				c-0.092,0.405-0.348,0.753-0.753,1.052v0.007c-5.841,4.413-42.24-1.059-42.24-1.059l1.272-17.133l1.215-16.416
				c0,0-30.557,4.448-30.913,6.488C511.839,284.518,512.33,290.253,513.005,297.217z M505.416,246.67
				c0.185,7.185,1.57,13.211,1.57,13.211l35.759-3.241c0,0-0.256-7.369-2.679-15.214c-2.793-9.054-8.471-18.747-19.969-18.455
				C507.377,223.291,505.131,236.209,505.416,246.67z"/>
			<path fill="#CCDBEE" d="M505.416,246.67c-0.284-10.46,1.961-23.379,14.682-23.699c11.498-0.292,17.176,9.401,19.969,18.455
				c0,0-10.233-5.309-19.237-5.017C511.96,236.7,505.607,246.365,505.416,246.67z"/>
			<path fill="#CCDBEE" d="M542.88,277.284l-1.215,16.416c-1.926-2.068-28.66,3.518-28.66,3.518
				c-0.675-6.964-1.166-12.699-1.038-13.445C512.323,281.732,542.88,277.284,542.88,277.284z"/>
			<path fill="#CCDBEE" d="M515.876,324.896v13.858l-41.927,4.441l1.954-15.101C476.258,329.16,515.876,324.896,515.876,324.896z"/>
		</g>
		<g>
		</g>
	</g>
</g>
<g id="Layer_5">
	<g id="XMLID_10_">
		<g>
			<path fill="#6FA9D1" d="M600.106,211.781c11.382-33.101,69.635-44.458,107.994-37.313c-5.671,12.961-16.607,39.694-16.607,39.694
				s-50.63-18.648-58.731,10.726c-2.657,9.624,2.39,16.299,10.588,20.755v0.008c16.817,9.154,46.896,9,50.979,5.914
				c-0.811,12.824,0,24.773,0,24.773s-104.097,32.201-95.996-56.504C598.624,217.022,599.223,214.333,600.106,211.781z"/>
			<path fill="#CCDBEE" d="M694.328,276.337l-2.836,22.237c0,0-130.789,21.856-91.386-86.793c-0.883,2.552-1.482,5.241-1.774,8.052
				C590.231,308.538,694.328,276.337,694.328,276.337z"/>
			<path fill="#CCDBEE" d="M691.492,214.162l-3.24,13.067c0,0-45.648-7.607-44.903,18.414c-8.198-4.456-13.245-11.131-10.588-20.755
				C640.862,195.514,691.492,214.162,691.492,214.162z"/>
		</g>
		<g>
		</g>
	</g>
</g>
<g id="Layer_6">
	<g id="XMLID_5_">
		<g>
			<path fill="#6FA9D1" d="M880.259,223.334l-37.897,128.361l-38.374-10.482l6.786-26.826l4.584-18.107l-49.744-8.066l-1.394,18.711
				l-3.815,51.166c0,0-33.642-4.029-51.286-5.92c1.762-80.379,37.457-173.351,38.012-174.8l0.007-0.014
				c35.531,2.366,52.587,25.639,52.587,25.639l-22.74,52.253c5.678-0.81,24.772,2.16,36.924,4.242
				c6.104,1.052,10.453,1.869,10.453,1.869l12.315-42.197L880.259,223.334z"/>
			<polygon fill="#CCDBEE" points="842.361,351.695 837.152,369.695 800.668,360.699 803.987,341.213 			"/>
			<path fill="#CCDBEE" d="M836.676,219.163L824.36,261.36c0,0-4.349-0.817-10.453-1.869L836.676,219.163z"/>
			<polygon fill="#CCDBEE" points="836.676,219.163 813.907,259.491 821.276,229.701 			"/>
			<polygon fill="#CCDBEE" points="815.357,296.28 810.773,314.387 764.22,306.925 765.613,288.214 			"/>
			<path fill="#CCDBEE" d="M760.404,358.091l-5.216,17.29c0,0-34.58-6.631-53.532-9.949
				c-10.425-58.741,23.686-162.436,23.686-162.436l21.788-25.625c-0.555,1.45-36.25,94.421-38.012,174.8
				C726.763,354.062,760.404,358.091,760.404,358.091z"/>
		</g>
		<g>
		</g>
	</g>
</g>
<g id="Layer_7">
	<g id="XMLID_4_">
		<g>
			<path fill="#6FA9D1" d="M958.018,362.106v26.293h-59.224l-18.235-103.986c0,0,36.001-19.187,69.4-19.421
				c0,11.37,0,29.847,0,29.847l-37.897,6.396l2.011,11.903l1.187,7.042l31.147-6.865v21.554l-25.583,6.63l2.025,14.156l1.293,9.061
				L958.018,362.106z"/>
			<polygon fill="#CCDBEE" points="958.018,388.399 951.856,404.51 888.845,404.51 898.794,388.399 			"/>
			<polygon fill="#CCDBEE" points="949.959,294.838 946.406,308.34 914.072,313.137 912.062,301.234 			"/>
			<polygon fill="#CCDBEE" points="946.406,334.868 943.329,352.157 922.849,355.654 920.823,341.498 			"/>
			<polygon fill="#CCDBEE" points="880.559,284.413 898.794,388.399 888.845,404.51 869.188,309.996 			"/>
		</g>
		<g>
		</g>
	</g>
</g>
<g id="Layer_8">
	<g id="XMLID_7_">
		<g>
			<path fill="#6FA9D1" d="M1118.308,255.919c1.452,14.17,0.479,26.263-2.318,36.568c-18.59,68.59-117.737,58.376-117.737,58.376
				l-25.166-128.188C973.086,222.675,1107.169,147.461,1118.308,255.919z M1068.363,274.344c2.821-3.324,4.117-7.405,2.912-12.4
				c-5.775-23.894-54.87-6.441-54.87-6.441l3.696,13.547l5.38,19.697C1025.481,288.747,1057.728,286.927,1068.363,274.344z"/>
			<path fill="#CCDBEE" d="M998.252,350.863c0,0,99.147,10.214,117.737-58.376c-13.458,86.434-126.813,83.109-126.813,83.109
				L998.252,350.863z"/>
			<path fill="#CCDBEE" d="M1071.275,261.944c1.205,4.995-0.091,9.076-2.912,12.4c-8.688-17.735-48.262-5.294-48.262-5.294
				l-3.696-13.547C1016.405,255.503,1065.5,238.051,1071.275,261.944z"/>
			<polygon fill="#CCDBEE" points="973.086,222.675 998.252,350.863 989.176,375.597 957.549,254.257 			"/>
		</g>
		<g>
		</g>
	</g>
</g>
</svg>
