<?xml version="1.0" encoding="utf-8"?>
<!-- Generator: Adobe Illustrator 16.0.0, SVG Export Plug-In . SVG Version: 6.00 Build 0)  -->
<!DOCTYPE svg PUBLIC "-//W3C//DTD SVG 1.1//EN" "http://www.w3.org/Graphics/SVG/1.1/DTD/svg11.dtd">
<svg version="1.1" id="Layer_1" xmlns="http://www.w3.org/2000/svg" xmlns:xlink="http://www.w3.org/1999/xlink" x="0px" y="0px"
	 width="21.75px" height="21px" viewBox="0 0 21.75 21" enable-background="new 0 0 21.75 21" xml:space="preserve">
<path display="none" d="M314.398,314.559c-1.118,1.119-6.028,8.113-1.795,12.354c4.234,4.242,11.223-0.668,12.354-1.786
	c1.119-1.119-0.341-4.401-3.254-7.314C318.793,314.893,315.518,313.44,314.398,314.559L314.398,314.559z M323.652,324.146
	c-0.334,0.325-2.892-0.443-5.354-2.929c-2.469-2.462-3.254-5.033-2.927-5.359c0.318-0.334,2.891,0.458,5.354,2.934
	C323.193,321.263,323.979,323.812,323.652,324.146L323.652,324.146z M323.805,316.28c0.254,0,0.516-0.103,0.713-0.298l1.901-1.903
	c0.386-0.392,0.386-1.031,0-1.409c-0.392-0.398-1.03-0.398-1.423,0l-1.896,1.888c-0.392,0.399-0.392,1.031,0,1.425
	C323.296,316.179,323.551,316.28,323.805,316.28z M320.202,313.796c0.151,0.095,0.319,0.131,0.485,0.131
	c0.356,0,0.697-0.182,0.879-0.508l1.076-1.932c0.269-0.486,0.102-1.098-0.379-1.358c-0.486-0.269-1.097-0.102-1.357,0.378
	l-1.082,1.933C319.557,312.925,319.723,313.535,320.202,313.796z M328.954,316.811c-0.276-0.479-0.886-0.646-1.365-0.378
	l-1.933,1.075c-0.479,0.27-0.646,0.879-0.377,1.365c0.174,0.327,0.516,0.509,0.871,0.509c0.166,0,0.334-0.044,0.485-0.131
	l1.925-1.083C329.057,317.907,329.216,317.297,328.954,316.811L328.954,316.811z"/>
<path fill="#FFFFFF" d="M19.431,1.943c-0.39-0.393-1.022-0.393-1.418,0L2.318,17.637c-0.393,0.395-0.393,1.029,0,1.42
	c0.195,0.197,0.453,0.295,0.711,0.295c0.256,0,0.514-0.098,0.709-0.295L19.431,3.363C19.824,2.971,19.824,2.334,19.431,1.943z
	 M15.095,9.689c1.394,1.894,1.826,3.535,1.563,3.795c-0.26,0.26-1.901-0.172-3.793-1.565l-5.55,5.549
	c4.204,1.846,9.669-2.025,10.65-3.006c0.93-0.929,0.098-3.326-1.863-5.779L15.095,9.689z M9.535,8.43
	C8.433,6.768,8.1,5.396,8.337,5.158c0.233-0.235,1.606,0.098,3.271,1.201l1.027-1.027C10.361,3.65,8.221,2.988,7.356,3.857
	c-0.933,0.93-4.468,5.9-3.245,9.998L9.535,8.43L9.535,8.43z"/>
</svg>
