<?xml version="1.0" encoding="utf-8"?>
<!-- Generator: Adobe Illustrator 16.0.0, SVG Export Plug-In . SVG Version: 6.00 Build 0)  -->
<!DOCTYPE svg PUBLIC "-//W3C//DTD SVG 1.1//EN" "http://www.w3.org/Graphics/SVG/1.1/DTD/svg11.dtd">
<svg version="1.1" id="Layer_1" xmlns="http://www.w3.org/2000/svg" xmlns:xlink="http://www.w3.org/1999/xlink" x="0px" y="0px"
	 width="20px" height="20px" viewBox="0 0 20 20" enable-background="new 0 0 20 20" xml:space="preserve">
<path display="none" d="M324.479,311.04c-1.271,0-2.304,0.392-2.304,1.664v14.592c0,1.272,1.031,1.664,2.304,1.664
	c1.273,0,2.306-0.392,2.306-1.664v-14.592C326.784,311.432,325.752,311.04,324.479,311.04z M315.52,311.04
	c-1.271,0-2.304,0.392-2.304,1.664v14.592c0,1.272,1.032,1.664,2.304,1.664c1.272,0,2.305-0.392,2.305-1.664v-14.592
	C317.824,311.432,316.792,311.04,315.52,311.04z"/>
<path display="none" d="M325.254,324.395c-2.434-0.889-3.213-1.637-3.213-3.239c0-0.96,0.744-0.646,1.07-2.408
	c0.135-0.731,0.793-0.013,0.918-1.68c0-0.665-0.357-0.831-0.357-0.831s0.182-0.985,0.254-1.741c0.086-0.944-0.545-3.382-3.925-3.382
	c-3.379,0-4.013,2.438-3.924,3.382c0.071,0.756,0.254,1.741,0.254,1.741s-0.36,0.165-0.36,0.831c0.125,1.667,0.782,0.948,0.918,1.68
	c0.326,1.762,1.07,1.448,1.07,2.408c0,1.604-0.779,2.352-3.213,3.239c-2.443,0.89-4.029,1.798-4.029,2.414c0,0.619,0,2.08,0,2.08
	h18.567c0,0,0-1.461,0-2.08C329.283,326.191,327.697,325.283,325.254,324.395L325.254,324.395z"/>
<g id="XMLID_1_">
	<g>
		<path fill="#66757F" d="M8.07,3.26c-2.66,0-4.81,2.15-4.81,4.81c0,2.661,2.37,5.03,5.03,5.03s4.81-2.149,4.81-4.81
			S10.73,3.26,8.07,3.26z M8.29,15.25c-3.84,0-7.17-3.33-7.17-7.18c0-3.84,3.11-6.95,6.95-6.95c3.85,0,7.17,3.33,7.17,7.17
			c0,1.32-0.36,2.55-1.01,3.61l4.25,4.25c0.42,0.42,0.569,0.939,0.149,1.359l-1.06,1.061c-0.41,0.42-1.09,0.42-1.511,0L11.79,14.3
			C10.76,14.9,9.56,15.25,8.29,15.25z"/>
	</g>
	<g>
	</g>
</g>
</svg>
