<?xml version="1.0" encoding="utf-8"?>
<!-- Generator: Adobe Illustrator 16.0.0, SVG Export Plug-In . SVG Version: 6.00 Build 0)  -->
<!DOCTYPE svg PUBLIC "-//W3C//DTD SVG 1.1//EN" "http://www.w3.org/Graphics/SVG/1.1/DTD/svg11.dtd">
<svg version="1.1" id="Layer_1" xmlns="http://www.w3.org/2000/svg" xmlns:xlink="http://www.w3.org/1999/xlink" x="0px" y="0px"
	 width="20px" height="20px" viewBox="310 310 20 20" enable-background="new 310 310 20 20" xml:space="preserve">
<path display="none" d="M324.479,311.04c-1.272,0-2.304,0.392-2.304,1.664v14.592c0,1.272,1.031,1.664,2.304,1.664
	s2.305-0.392,2.305-1.664v-14.592C326.784,311.432,325.752,311.04,324.479,311.04z M315.52,311.04c-1.272,0-2.304,0.392-2.304,1.664
	v14.592c0,1.272,1.032,1.664,2.304,1.664c1.272,0,2.304-0.392,2.304-1.664v-14.592C317.824,311.432,316.792,311.04,315.52,311.04z"
	/>
<path display="none" d="M325.254,324.395c-2.434-0.889-3.213-1.637-3.213-3.24c0-0.96,0.744-0.646,1.07-2.408
	c0.135-0.731,0.793-0.013,0.918-1.68c0-0.665-0.357-0.831-0.357-0.831s0.182-0.985,0.254-1.741c0.086-0.944-0.545-3.382-3.925-3.382
	c-3.379,0-4.013,2.438-3.924,3.382c0.071,0.756,0.254,1.741,0.254,1.741s-0.36,0.165-0.36,0.831c0.125,1.667,0.782,0.949,0.917,1.68
	c0.327,1.762,1.071,1.448,1.071,2.408c0,1.604-0.779,2.352-3.213,3.24c-2.443,0.889-4.029,1.797-4.029,2.414c0,0.619,0,2.08,0,2.08
	h18.567c0,0,0-1.461,0-2.08C329.283,326.191,327.697,325.283,325.254,324.395L325.254,324.395z"/>
<path d="M328.485,326.148l-4.251-4.249c0.641-1.054,1.01-2.288,1.01-3.611c0-3.841-3.329-7.17-7.171-7.17
	c-3.841,0-6.956,3.114-6.956,6.956c0,3.841,3.329,7.171,7.17,7.171c1.277,0,2.474-0.347,3.502-0.948l4.271,4.273
	c0.42,0.417,1.097,0.417,1.513,0l1.062-1.06C329.052,327.091,328.9,326.565,328.485,326.148L328.485,326.148z M313.259,318.073
	c0-2.659,2.155-4.815,4.814-4.815c2.66,0,5.031,2.37,5.031,5.03c0,2.66-2.156,4.815-4.816,4.815
	C315.627,323.104,313.259,320.733,313.259,318.073z"/>
</svg>
