<?xml version="1.0" encoding="utf-8"?>
<!-- Generated by IcoMoon.io -->
<!DOCTYPE svg PUBLIC "-//W3C//DTD SVG 1.1//EN" "http://www.w3.org/Graphics/SVG/1.1/DTD/svg11.dtd">
<svg version="1.1" xmlns="http://www.w3.org/2000/svg" xmlns:xlink="http://www.w3.org/1999/xlink" width="640" height="640" viewBox="0 0 640 640">
<g>
</g>
	<path d="M108.448 253.184l35.264 310.688c1.888 14.752 73.12 63.264 176.288 63.328 103.168-0.064 174.432-48.576 176.32-63.328l35.264-310.688c-53.888 30.144-134.432 44.416-211.584 44.416s-157.696-14.272-211.552-44.416zM421.344 61.184l-27.488-30.496c-10.592-15.072-22.112-17.888-44.544-17.888h-58.624c-22.4 0-33.92 2.816-44.544 17.888l-27.456 30.496c-82.24 14.368-141.888 52.48-141.888 80.576v5.472c0 49.472 108.864 89.6 243.2 89.6s243.2-40.128 243.2-89.6v-5.472c0-28.096-59.616-66.208-141.856-80.576zM386.208 132.448l-40.064-42.848h-52.288l-40.064 42.848h-54.4c0 0 59.584-71.040 67.552-80.672 6.080-7.36 12.32-10.176 20.384-10.176h65.376c8.064 0 14.272 2.816 20.384 10.176 7.936 9.632 67.552 80.672 67.552 80.672h-54.432z"></path>
</svg>
