<?xml version="1.0" encoding="utf-8"?>
<!-- Generated by IcoMoon.io -->
<!DOCTYPE svg PUBLIC "-//W3C//DTD SVG 1.1//EN" "http://www.w3.org/Graphics/SVG/1.1/DTD/svg11.dtd">
<svg version="1.1" xmlns="http://www.w3.org/2000/svg" xmlns:xlink="http://www.w3.org/1999/xlink" width="640" height="640" viewBox="0 0 640 640">
<g>
</g>
	<path d="M474.24 462.336c-78.88-28.736-104.096-52.992-104.096-104.928 0-31.168 24.096-20.992 34.656-78.080 4.384-23.68 25.664-0.384 29.76-54.432 0-21.536-11.616-26.912-11.616-26.912s5.92-31.904 8.224-56.416c2.816-30.592-17.664-109.568-127.168-109.568-109.472 0-130.016 78.976-127.136 109.568 2.304 24.512 8.224 56.416 8.224 56.416s-11.648 5.344-11.648 26.912c4.064 54.048 25.344 30.752 29.728 54.432 10.592 57.088 34.688 46.912 34.688 78.080 0 51.936-25.216 76.192-104.096 104.928-79.168 28.8-130.56 58.208-130.56 78.272 0 20.032 0 67.36 0 67.36h601.6c0 0 0-47.328 0-67.36s-51.424-49.44-130.56-78.272z"></path>
</svg>
