<?xml version="1.0" encoding="utf-8"?>
<!-- Generator: Adobe Illustrator 16.0.0, SVG Export Plug-In . SVG Version: 6.00 Build 0)  -->
<!DOCTYPE svg PUBLIC "-//W3C//DTD SVG 1.1//EN" "http://www.w3.org/Graphics/SVG/1.1/DTD/svg11.dtd">
<svg version="1.1" id="Layer_1" xmlns="http://www.w3.org/2000/svg" xmlns:xlink="http://www.w3.org/1999/xlink" x="0px" y="0px"
	 width="20px" height="20px" viewBox="310 310 20 20" enable-background="new 310 310 20 20" xml:space="preserve">
<path display="none" d="M324.479,311.04c-1.272,0-2.304,0.392-2.304,1.664v14.592c0,1.272,1.031,1.664,2.304,1.664
	s2.305-0.392,2.305-1.664v-14.592C326.784,311.432,325.752,311.04,324.479,311.04z M315.52,311.04c-1.272,0-2.304,0.392-2.304,1.664
	v14.592c0,1.272,1.032,1.664,2.304,1.664c1.272,0,2.304-0.392,2.304-1.664v-14.592C317.824,311.432,316.792,311.04,315.52,311.04z"
	/>
<g id="XMLID_1_">
	<g>
		<path fill="#66757F" d="M329.28,326.81c0,0.62,0,2.08,0,2.08h-18.56c0,0,0-1.46,0-2.08c0-0.619,1.58-1.529,4.03-2.42
			c2.43-0.88,3.21-1.63,3.21-3.239c0-0.96-0.74-0.641-1.07-2.4c-0.14-0.74-0.79-0.02-0.92-1.68c0-0.67,0.36-0.84,0.36-0.84
			s-0.18-0.98-0.25-1.74c-0.09-0.94,0.54-3.38,3.92-3.38s4.01,2.44,3.93,3.38c-0.08,0.76-0.26,1.74-0.26,1.74s0.36,0.17,0.36,0.84
			c-0.13,1.66-0.78,0.94-0.92,1.68c-0.32,1.76-1.07,1.44-1.07,2.4c0,1.609,0.78,2.359,3.21,3.239
			C327.7,325.28,329.28,326.19,329.28,326.81z"/>
	</g>
	<g>
	</g>
</g>
</svg>
